<?xml version="1.0" encoding="UTF-8"?>
<svg id="Layer_2" data-name="Layer 2" xmlns="http://www.w3.org/2000/svg" viewBox="0 0 782.5 281.07">
  <defs>
    <style>
      .cls-1 {
        fill: #fff;
        stroke-width: 0px;
      }
    </style>
  </defs>
  <g id="Layer_1-2" data-name="Layer 1">
    <g>
      <path class="cls-1" d="m228.66,46.79v231.8h-46.67c-10.49-3.62-22.07-13.75-34.73-30.39-12.66-16.64-23.52-34.01-33.28-51.74l-35.46-66.93-32.2-62.69.37,211.75h0c-25.78,0-46.67-20.9-46.67-46.67V0h46.31c10.49,5.06,23.16,20.62,38.71,46.31,15.56,25.69,32.56,56.8,51.37,92.98,19.18,36.18,34.37,62.59,45.59,78.87V3.26s0,0,0,0c25.23-1.76,46.67,18.23,46.67,43.53Z"/>
      <path class="cls-1" d="m435.68,190.61h-142.91c2.53,14.11,8.32,25.69,17.36,34.73,15.3,15,39.68,17.09,64.4,9.37,10.53-3.29,21.96.56,28.1,9.72l11.69,17.45c-19.54,13.39-42.69,19.54-69.1,19.18-32.92,0-57.89-10.13-75.25-30.39-17.37-20.26-26.05-45.22-26.05-74.53s8.68-53.55,25.69-73.45c17.01-19.9,41.97-30.03,74.17-30.03,68.74,0,96.6,64.04,91.9,117.95Zm-48.48-33.65c-.36-4.7-1.45-10.13-3.98-15.92-4.7-11.94-20.62-26.05-42.33-26.05-27.13,0-42.33,16.28-47.76,41.97h94.07Z"/>
      <path class="cls-1" d="m782.26,170.57c-.29-5.16-.85-10.28-1.78-15.36-2.2-12-6.4-23.74-12.47-34.33-9.35-16.08-23.16-29.87-40.39-37.33-28.09-12-60.62-7.57-90.28-7.57-36.12,0-70.78,15.07-94.74,42.1-6.93,7.84-15.34,16.25-25.44,25.85-.03.03-.14.03-.17,0-20.71-19.7-34.39-34.36-42.71-49.5-6.35-11.52-18.72-18.45-31.89-18.45h-22.27c3.95,17.37,10.85,32.2,26.39,50.64l18.45,20.61,23.89,23.89c-34.36,35.1-57.88,70.92-69.83,107.47h46.69c10.47-25.68,27.47-52.1,51.32-78.48,17.91,19.7,31.89,39.43,42.2,58.82,6.42,12.1,18.92,19.66,32.6,19.66h23.28c-11.93-36.52-35.41-72.3-69.73-107.37-.03-.07-.03-.13,0-.2,11.18-11.15,19.12-19.09,23.45-23.78l.27-.27c9.59-9.66,21.32-17.87,34.02-22.91.05-.02.07-.03.1-.05.07-.03.16-.07.2-.09,8.65-3.38,17.77-5.34,27.06-5.34l56.86-.84c4.68,0,9.2.75,13.47,2.11,8.98,2.48,16.37,7.61,22.09,15.63,5.34,7.3,8.94,15.75,10.87,24.8,3.17,14.44,2.36,30.55-2.72,44.25-6.73,18.15-20.92,32.04-43.27,32.04-14.52,0-27.93-6.17-37.53-16.38-3.59-3.82-6.67-8.19-9.05-13.03-2.3-4.7-3.61-9.29-7.01-13.39-6.3-7.59-15.76-12.17-25.64-12.17h-17.7c.38,14.26,2.86,27.45,7.41,39.51,2.96,7.96,6.95,15.48,11.74,22.49,10.22,14.45,24.64,25.06,40.93,31.31,8.6,2.71,17.66,4.9,26.73,5.74,12.67,1.11,25.08-.09,36.69-3.39,16.7-4.02,31.71-13.43,43.05-26.31,9.38-11.16,16.13-23.66,20.25-37.49,2.13-7.37,3.55-14.94,4.27-22.59.62-6.74.74-13.53.34-20.29Z"/>
    </g>
  </g>
</svg>