<?xml version="1.0" encoding="UTF-8"?>
<svg id="Layer_2" data-name="Layer 2" xmlns="http://www.w3.org/2000/svg" viewBox="0 0 708 254.31">
  <defs>
    <style>
      .cls-1 {
        fill: #0505dd;
        stroke-width: 0px;
      }
    </style>
  </defs>
  <g id="Layer_1-2" data-name="Layer 1">
    <g>
      <path class="cls-1" d="m206.89,42.33v209.73h-42.23c-9.49-3.27-19.97-12.44-31.43-27.5-11.46-15.06-21.28-30.77-30.12-46.81l-32.08-60.56-29.14-56.72.33,191.59h0c-23.32,0-42.23-18.91-42.23-42.23V0h41.9c9.49,4.58,20.95,18.66,35.03,41.9,14.08,23.24,29.46,51.39,46.48,84.13,17.35,32.74,31.1,56.63,41.25,71.36V2.95s0,0,0,0c22.83-1.59,42.23,16.5,42.23,39.39Z"/>
      <path class="cls-1" d="m394.2,172.46h-129.3c2.29,12.77,7.53,23.24,15.71,31.43,13.84,13.57,35.9,15.46,58.27,8.48,9.52-2.97,19.87.51,25.42,8.79l10.58,15.79c-17.68,12.11-38.63,17.68-62.52,17.35-29.79,0-52.38-9.16-68.09-27.5-15.71-18.33-23.57-40.92-23.57-67.43s7.86-48.45,23.24-66.46c15.39-18,37.97-27.17,67.11-27.17,62.2,0,87.41,57.94,83.15,106.72Zm-43.87-30.44c-.33-4.26-1.31-9.17-3.6-14.4-4.26-10.8-18.66-23.57-38.3-23.57-24.55,0-38.3,14.73-43.21,37.97h85.11Z"/>
      <path class="cls-1" d="m707.79,154.33c-.26-4.66-.77-9.3-1.61-13.9-1.99-10.86-5.79-21.48-11.28-31.06-8.46-14.55-20.95-27.03-36.55-33.78-25.42-10.86-54.85-6.85-81.68-6.85-32.68,0-64.04,13.63-85.72,38.09-6.27,7.09-13.88,14.7-23.02,23.39-.03.03-.12.03-.15,0-18.74-17.82-31.12-31.09-38.64-44.78-5.75-10.42-16.94-16.69-28.86-16.69h-20.15c3.58,15.71,9.81,29.13,23.87,45.82l16.69,18.65,21.61,21.61c-31.09,31.76-52.37,64.16-63.19,97.24h42.25c9.48-23.23,24.85-47.14,46.43-71.01,16.2,17.82,28.86,35.67,38.18,53.22,5.81,10.94,17.12,17.79,29.5,17.79h21.06c-10.79-33.05-32.04-65.42-63.09-97.15-.03-.06-.03-.12,0-.18,10.12-10.09,17.3-17.27,21.21-21.52l.24-.24c8.68-8.74,19.29-16.17,30.78-20.73.04-.02.06-.03.09-.04.07-.03.14-.06.18-.08,7.83-3.06,16.08-4.83,24.49-4.83l51.45-.76c4.23,0,8.32.68,12.18,1.91,8.12,2.25,14.81,6.89,19.98,14.14,4.83,6.61,8.09,14.25,9.83,22.44,2.87,13.06,2.14,27.64-2.46,40.04-6.09,16.42-18.93,28.99-39.15,28.99-13.14,0-25.27-5.59-33.95-14.82-3.25-3.46-6.03-7.41-8.18-11.79-2.08-4.25-3.27-8.4-6.34-12.11-5.7-6.87-14.26-11.01-23.2-11.01h-16.01c.34,12.91,2.59,24.84,6.7,35.75,2.68,7.2,6.29,14.01,10.62,20.35,9.25,13.08,22.29,22.67,37.03,28.33,7.78,2.45,15.98,4.43,24.19,5.2,11.46,1.01,22.69-.08,33.19-3.07,15.11-3.64,28.7-12.15,38.95-23.81,8.49-10.09,14.59-21.4,18.32-33.92,1.92-6.67,3.21-13.52,3.86-20.44.56-6.1.67-12.25.31-18.36Z"/>
    </g>
  </g>
</svg>